0
SECTION
2
HEADER
9
$INSUNITS
70
1
9
$ACADVER
1
AC1014
9
$HANDSEED
5
FFFF
0
ENDSEC
0
SECTION
2
TABLES
0
TABLE
2
VPORT
5
8
100
AcDbSymbolTable
0
ENDTAB
0
TABLE
2
LTYPE
5
5
100
AcDbSymbolTable
0
LTYPE
5
14
100
AcDbSymbolTableRecord
100
AcDbLinetypeTableRecord
2
BYBLOCK
70
0
0
LTYPE
5
15
100
AcDbSymbolTableRecord
100
AcDbLinetypeTableRecord
2
BYLAYER
70
0
0
LTYPE
5
16
100
AcDbSymbolTableRecord
100
AcDbLinetypeTableRecord
2
DASHED
70
0
3
Dashed __ __ __ __ __ __ __ __ __ __ __ __ __ _
72
65
73
2
40
0.75
49
0.5
74
0
49
-0.25
74
0
0
ENDTAB
0
TABLE
2
LAYER
5
2
100
AcDbSymbolTable
70
2
0
LAYER
5
50
100
AcDbSymbolTableRecord
100
AcDbLayerTableRecord
2
0
70
0
62
7
6
CONTINUOUS
0
ENDTAB
0
TABLE
2
STYLE
5
3
100
AcDbSymbolTable
70
1
0
STYLE
5
11
100
AcDbSymbolTableRecord
100
AcDbTextStyleTableRecord
2
STANDARD
70
0
0
ENDTAB
0
TABLE
2
VIEW
5
6
100
AcDbSymbolTable
70
0
0
ENDTAB
0
TABLE
2
UCS
5
7
100
AcDbSymbolTable
70
0
0
ENDTAB
0
TABLE
2
APPID
5
9
100
AcDbSymbolTable
70
2
0
APPID
5
12
100
AcDbSymbolTableRecord
100
AcDbRegAppTableRecord
2
ACAD
70
0
0
ENDTAB
0
TABLE
2
DIMSTYLE
5
A
100
AcDbSymbolTable
70
1
0
ENDTAB
0
TABLE
2
BLOCK_RECORD
5
1
100
AcDbSymbolTable
70
1
0
BLOCK_RECORD
5
1F
100
AcDbSymbolTableRecord
100
AcDbBlockTableRecord
2
*MODEL_SPACE
0
BLOCK_RECORD
5
1B
100
AcDbSymbolTableRecord
100
AcDbBlockTableRecord
2
*PAPER_SPACE
0
ENDTAB
0
ENDSEC
0
SECTION
2
BLOCKS
0
BLOCK
5
20
100
AcDbEntity
100
AcDbBlockBegin
2
*MODEL_SPACE
0
ENDBLK
5
21
100
AcDbEntity
100
AcDbBlockEnd
0
BLOCK
5
1C
100
AcDbEntity
100
AcDbBlockBegin
2
*PAPER_SPACE
0
ENDBLK
5
1D
100
AcDbEntity
100
AcDbBlockEnd
0
ENDSEC
0
SECTION
2
ENTITIES
0
LWPOLYLINE
5
100
100
AcDbEntity
8
OUTER_PROFILES
100
AcDbPolyline
90
38
70
1
43
0.0
10
3.8872618110236217
20
5.881381447348371
10
3.8872618110236217
20
6.2613316214066632
10
0.018897637795277703
20
6.2613316214066632
10
0.018897637795277703
20
5.881381447348371
10
-0.023847811853567859
20
5.881381447348371
10
-0.023847811853568036
20
5.9002790851436462
10
-0.36105253626300932
20
5.900279085143648
10
-0.36105253626301403
20
3.5350743607341961
10
0.018897637795277703
20
3.5350743607341961
10
0.018897637795277703
20
3.4923289110853513
10
0
20
3.4923289110853513
10
0
20
3.1244067775947153
10
-0.042745449648844441
20
3.1244067775947153
10
-0.042745449648844067
20
3.1400620933379519
10
-0.25495017405829301
20
3.1400620933379519
42
0.41421356237309498
10
-0.5049501740582929
20
2.8900620933379519
10
-0.50495017405829301
20
0.59006209333795157
10
-0.04274544964884408
20
0.59006209333795157
10
-0.042745449648844441
20
0.60571740908118654
10
0
20
0.60571740908118654
10
0
20
0
10
3.9061594488188964
20
0
10
3.9061594488188964
20
0.60571740908118654
10
3.94890489846774
20
0.60571740908118654
10
3.94890489846774
20
0.59006209333795046
10
4.4111096228771896
20
0.59006209333795157
10
4.4111096228771896
20
2.8900620933379511
42
0.41421356237309426
10
4.1611096228771896
20
3.1400620933379511
10
3.94890489846774
20
3.1400620933379511
10
3.94890489846774
20
3.1244067775947153
10
3.9061594488188964
20
3.1244067775947153
10
3.9061594488188964
20
3.4923289110853513
10
3.8872618110236217
20
3.4923289110853513
10
3.8872618110236217
20
3.5350743607341952
10
4.2672119850819117
20
3.5350743607341952
10
4.2672119850819143
20
5.9002790851436471
10
3.9300072606724683
20
5.9002790851436462
10
3.9300072606724683
20
5.881381447348371
0
LWPOLYLINE
5
101
100
AcDbEntity
8
INTERIOR_PROFILES
100
AcDbPolyline
90
8
70
1
43
0.0
10
1.9830588126835131
20
0.2421723421283809
10
1.9830588126835136
20
0.34217234212838105
10
1.3940246062992125
20
0.34217234212838193
10
1.3940246062992125
20
0.36106997992365752
10
2.4648907480314959
20
0.36106997992365752
10
2.4648907480314959
20
0.22327470433310651
10
1.3940246062992125
20
0.22327470433310651
10
1.3940246062992125
20
0.24217234212838212
0
LWPOLYLINE
5
102
100
AcDbEntity
8
INTERIOR_PROFILES
100
AcDbPolyline
90
4
70
1
43
0.0
10
1.1002047244094484
20
2.7150620933379512
10
3.3752047244094485
20
2.7150620933379512
10
3.3752047244094485
20
1.0150620933379513
10
1.1002047244094482
20
1.0150620933379513
0
CIRCLE
5
103
100
AcDbEntity
8
INTERIOR_PROFILES
100
AcDbCircle
10
-0.53145472440944885
20
1.8650620933379511
30
0
40
0.24409448818897639
210
0
220
0
230
-1
0
LINE
5
104
100
AcDbEntity
8
BEND
100
AcDbLine
10
-0.021372724824421992
20
3.1244067775947162
30
5.4636959873285258e-18
11
-0.021372724824421992
21
0.60571740908118599
31
5.4636959873285258e-18
0
LINE
5
105
100
AcDbEntity
8
BEND
100
AcDbLine
10
3.9086345358480443
20
3.5350743607341921
30
-4.6957825739915098e-16
11
3.9086345358480452
21
5.881381447348371
31
1.3271617150731626e-14
0
LINE
5
106
100
AcDbEntity
8
BEND
100
AcDbLine
10
1.3987061727561026e-15
20
0.59503104666897555
30
-1.6391087961985577e-17
11
3.9061594488188964
21
0.59503104666897555
31
1.9776584974227943e-16
0
LINE
5
107
100
AcDbEntity
8
BEND
100
AcDbLine
10
3.8872618110236217
20
3.5137016359097735
30
1.3676706852487715e-15
11
0.018897637795277703
21
3.5137016359097735
31
1.3676706852487715e-15
0
LINE
5
108
100
AcDbEntity
8
BEND
100
AcDbLine
10
1.4248461500212717
20
0.24217234212838193
30
-1.5844718363252565e-16
11
1.4248461500212717
21
0.34217234212838177
31
1.4072427425431361e-17
0
LINE
5
109
100
AcDbEntity
8
BEND
100
AcDbLine
10
3.9275321736433186
20
0.60571740908118654
30
5.4636959873285258e-18
11
3.9275321736433186
21
3.1244067775947162
31
5.4636959873285258e-18
0
LINE
5
110
100
AcDbEntity
8
BEND
100
AcDbLine
10
3.9061594488188978
20
3.1350931400069268
30
-1.0927391974657052e-17
11
0
21
3.1350931400069268
31
-1.6391087961985577e-17
0
LINE
5
111
100
AcDbEntity
8
BEND
100
AcDbLine
10
1.5494813634496427
20
0.34217234212838205
30
3.332132610215729e-16
11
1.5494813634496425
21
0.24217234212838185
31
6.579405434082693e-16
0
LINE
5
112
100
AcDbEntity
8
BEND
100
AcDbLine
10
3.8872618110236217
20
5.9027541721727932
30
8.1744386355094572e-15
11
0.018897637795277703
21
5.9027541721727932
31
7.9739742068884743e-15
0
LINE
5
113
100
AcDbEntity
8
BEND
100
AcDbLine
10
-0.00247508702914507
20
5.8813814473483692
30
3.6408424912303624e-15
11
-0.00247508702914507
21
3.5350743607341952
31
-4.232169938908287e-15
0
LINE
5
114
100
AcDbEntity
8
BEND_EXTENT
100
AcDbLine
10
0.018897637795277703
20
5.9241268969972145
30
7.8677222217530765e-15
11
3.8872618110236217
21
5.9241268969972145
31
7.8677222217530765e-15
0
LWPOLYLINE
5
115
100
AcDbEntity
8
BEND_EXTENT
100
AcDbPolyline
90
4
70
1
43
0.0
10
3.8872618110236217
20
5.881381447348371
10
0.018897637795277703
20
5.881381447348371
10
0.018897637795277703
20
3.5350743607341961
10
3.8872618110236217
20
3.5350743607341952
0
LINE
5
116
100
AcDbEntity
8
BEND_EXTENT
100
AcDbLine
10
3.9300072606724683
20
5.881381447348371
30
1.1189649382048821e-14
11
3.9300072606724683
21
3.5350743607341921
31
2.4477358023231794e-15
0
LINE
5
117
100
AcDbEntity
8
BEND_EXTENT
100
AcDbLine
10
-0.023847811853567685
20
3.5350743607341952
30
-3.1470888887012311e-15
11
-0.023847811853567859
21
5.881381447348371
31
1.0839972838859796e-14
0
LINE
5
118
100
AcDbEntity
8
BEND_EXTENT
100
AcDbLine
10
-0.042745449648844441
20
0.60571740908118654
30
0
11
-0.042745449648844441
21
3.1244067775947153
31
0
0
LINE
5
119
100
AcDbEntity
8
BEND_EXTENT
100
AcDbLine
10
3.8872618110236217
20
3.4923289110853513
30
-1.3987061727561026e-15
11
0.018897637795277703
21
3.4923289110853513
31
-1.3987061727561026e-15
0
LINE
5
120
100
AcDbEntity
8
BEND_EXTENT
100
AcDbLine
10
1.5708540882740649
20
0.3421723421283821
30
6.9935308637805131e-16
11
1.5708540882740645
21
0.24217234212838212
31
6.9935308637805131e-16
0
LINE
5
121
100
AcDbEntity
8
BEND_EXTENT
100
AcDbLine
10
1.5281086386252203
20
0.24217234212838176
30
-3.4967654318902565e-16
11
1.5281086386252205
21
0.34217234212838193
31
3.4967654318902565e-16
0
LINE
5
122
100
AcDbEntity
8
BEND_EXTENT
100
AcDbLine
10
1.4462188748456937
20
0.3421723421283816
30
-3.4967654318902565e-16
11
1.4462188748456937
21
0.24217234212838193
31
-6.9935308637805131e-16
0
LINE
5
123
100
AcDbEntity
8
BEND_EXTENT
100
AcDbLine
10
1.4034734251968504
20
0.24217234212838212
30
1.7483827159451283e-16
11
1.4034734251968504
21
0.34217234212838193
31
1.7483827159451283e-16
0
LINE
5
124
100
AcDbEntity
8
BEND_EXTENT
100
AcDbLine
10
3.9061594488188964
20
0.58434468425676478
30
1.7483827159451283e-16
11
1.3987061727561026e-15
21
0.58434468425676478
31
0
0
LWPOLYLINE
5
125
100
AcDbEntity
8
BEND_EXTENT
100
AcDbPolyline
90
4
70
1
43
0.0
10
0
20
0.60571740908118654
10
3.9061594488188964
20
0.60571740908118654
10
3.9061594488188964
20
3.1244067775947153
10
0
20
3.1244067775947153
0
LINE
5
126
100
AcDbEntity
8
BEND_EXTENT
100
AcDbLine
10
0
20
3.1457795024191375
30
0
11
3.9061594488188978
21
3.1457795024191375
31
0
0
LINE
5
127
100
AcDbEntity
8
BEND_EXTENT
100
AcDbLine
10
3.94890489846774
20
3.1244067775947153
30
0
11
3.94890489846774
21
0.60571740908118676
31
0
0
ENDSEC
0
SECTION
2
OBJECTS
0
DICTIONARY
5
C
100
AcDbDictionary
3
ACAD_GROUP
350
D
3
ACAD_MLINESTYLE
350
17
0
DICTIONARY
5
D
100
AcDbDictionary
0
DICTIONARY
5
1A
330
C
100
AcDbDictionary
0
DICTIONARY
5
17
100
AcDbDictionary
0
ENDSEC
0
EOF
